<?xml version="1.0" standalone="no"?>
<!DOCTYPE svg PUBLIC "-//W3C//DTD SVG 20010904//EN"
 "http://www.w3.org/TR/2001/REC-SVG-20010904/DTD/svg10.dtd">
<svg version="1.0" xmlns="http://www.w3.org/2000/svg"
 width="700.000000pt" height="700.000000pt" viewBox="0 0 700.000000 700.000000"
 preserveAspectRatio="xMidYMid meet">
<metadata>
Created by potrace 1.11, written by Peter Selinger 2001-2013
</metadata>
<g transform="translate(0.000000,700.000000) scale(0.100000,-0.100000)"
fill="#000000" stroke="none">
<path d="M3080 4970 c0 -1117 -2 -2030 -4 -2030 -2 0 -36 15 -77 34 -103 48
-261 97 -359 112 -130 21 -384 26 -490 11 -233 -34 -465 -124 -659 -257 -302
-206 -527 -520 -625 -871 -61 -220 -71 -548 -21 -740 3 -14 7 -32 9 -40 26
-136 118 -343 224 -504 84 -126 264 -309 392 -400 172 -122 414 -223 621 -261
137 -25 423 -25 535 0 12 2 39 7 59 10 73 12 210 55 265 83 14 7 30 13 35 13
6 0 60 27 120 61 292 161 528 411 665 702 76 162 132 367 144 532 2 33 5 990
5 2127 l1 2067 73 -34 c190 -87 375 -129 622 -140 61 -2 133 -9 161 -14 52
-10 179 -56 202 -74 7 -5 26 -17 42 -26 54 -29 150 -122 200 -193 51 -73 102
-190 116 -268 4 -25 9 -48 10 -52 1 -5 2 -26 3 -48 l1 -40 421 0 421 0 -6 93
c-14 224 -62 401 -162 602 -71 142 -166 275 -279 389 -88 89 -177 167 -199
175 -6 2 -13 7 -16 11 -5 7 -118 80 -124 80 -2 0 -31 15 -63 33 -32 19 -72 39
-88 45 -17 6 -55 20 -85 31 -145 55 -325 89 -515 96 -223 9 -375 68 -509 200
-86 85 -98 100 -141 178 -49 91 -81 208 -84 310 l-1 27 -420 0 -420 0 0 -2030z
m-576 -2715 c97 -21 169 -49 245 -99 216 -139 335 -366 327 -621 -4 -117 -17
-173 -61 -272 -95 -207 -260 -344 -485 -402 -103 -26 -277 -22 -370 9 -126 43
-218 98 -301 183 -375 380 -222 1010 287 1183 105 35 245 43 358 19z"/>
</g>
</svg>
